<?xml version="1.0" encoding="UTF-8"?>
<svg width="170px" height="26px" viewBox="0 0 170 26" version="1.1" xmlns="http://www.w3.org/2000/svg" xmlns:xlink="http://www.w3.org/1999/xlink">
    <!-- Generator: Sketch 46.2 (44496) - http://www.bohemiancoding.com/sketch -->
    <title>Logo-Edenhome-RGB</title>
    <desc>Created with Sketch.</desc>
    <defs>
        <polygon id="path-1" points="93 25.9999 93 0.3999 0.6002 0.3999 0.6002 25.9999 93 25.9999"></polygon>
    </defs>
    <g id="Page-1" stroke="none" stroke-width="1" fill="none" fill-rule="evenodd">
        <g id="Logo-Edenhome-RGB" transform="translate(0.000000, -3.000000)">
            <g id="Group-3" transform="translate(77.000000, 3.000000)">
                <mask id="mask-2" fill="white">
                    <use xlink:href="#path-1"></use>
                </mask>
                <g id="Clip-2"></g>
                <path d="M79.2002,0.8999 L93.0002,0.8999 L93.0002,5.2999 L84.2002,5.2999 L84.2002,10.8999 L92.9002,10.8999 L92.9002,15.2999 L84.2002,15.2999 L84.2002,21.1999 L93.0002,21.1999 L93.0002,25.5999 L79.2002,25.5999 L79.2002,0.8999 Z M49.9002,25.4999 L49.9002,0.8999 L56.5992,0.8999 L62.9002,18.4999 L69.0992,0.8999 L75.8002,0.8999 L75.8002,25.4999 L71.2002,25.4999 L71.3002,5.7999 L64.4002,25.4999 L61.0992,25.4999 L54.2002,5.7999 L54.3002,25.4999 L49.9002,25.4999 Z M26.9002,13.1999 C26.9002,17.6999 30.0992,21.5999 34.9002,21.5999 C39.9002,21.5999 42.8002,17.2999 42.8002,13.1999 C42.8002,9.0999 39.9002,4.7999 34.9002,4.7999 C30.0002,4.7999 26.9002,8.7999 26.9002,13.1999 L26.9002,13.1999 Z M22.0002,13.3999 C22.0002,5.4999 28.0002,0.3999 34.9002,0.3999 C42.3002,0.3999 47.8002,6.1999 47.8002,13.1999 C47.8002,20.1999 42.4002,25.9999 34.8002,25.9999 C27.3002,25.8999 22.0002,19.9999 22.0002,13.3999 L22.0002,13.3999 Z M0.6002,25.4999 L0.6002,0.8999 L5.6002,0.8999 L5.6002,10.7999 L15.0002,10.7999 L15.0002,0.8999 L20.0002,0.8999 L20.0002,25.4999 L15.0002,25.4999 L15.0002,15.0999 L5.5002,15.0999 L5.5002,25.4999 L0.6002,25.4999 Z" id="Fill-1" fill="#3D3D3D" mask="url(#mask-2)"></path>
            </g>
            <path d="M5,18.2002 L10,18.2002 L10,13.8002 L5,13.8002 L5,8.2002 L13.8,8.2002 L13.8,3.9002 L0,3.9002 L0,28.5002 L13.8,28.5002 L13.8,24.0992 L5,24.0992 L5,18.2002 Z M22.8,24.0992 L20.5,24.0992 L26.8,16.1002 L20.5,8.2002 L22.8,8.2002 C25.8,8.2002 27.5,9.3002 28.5,10.7002 C29.7,12.2002 30.2,14.3002 30.2,16.2002 C30.2,20.5992 28.2,24.0992 22.8,24.0992 L22.8,24.0992 Z M32.6,8.1002 C29.7,4.1002 25.2,3.8002 22.2,3.8002 L14,3.8002 L23.8,16.1002 L14,28.4002 L22.6,28.4002 C31.5,28.4002 35.2,23.0002 35.2,16.1002 C35.2,13.1002 34.4,10.4002 32.6,8.1002 L32.6,8.1002 Z M69.6,20.9002 L69.5,3.9002 L74.3,3.9002 L74.3,28.5002 L69.9,28.5002 L58.6,11.5002 L58.7,28.5002 L53.9,28.5002 L53.9,3.9002 L58.3,3.9002 L69.6,20.9002 Z M37.4,3.9002 L51.2,3.9002 L51.2,8.3002 L42.4,8.3002 L42.4,13.9002 L51,13.9002 L51,18.3002 L42.3,18.3002 L42.3,24.2002 L51.1,24.2002 L51.1,28.5992 L37.4,28.5992 L37.4,3.9002 Z" id="Fill-4" fill="#E6007E"></path>
        </g>
    </g>
</svg>